<svg width="24" height="24" viewBox="0 0 24 24" fill="none" xmlns="http://www.w3.org/2000/svg">
<path fill-rule="evenodd" clip-rule="evenodd" d="M17.4082 3.64997L17.6526 3.68064C18.2985 3.76977 19.1533 3.88956 19.6373 4.37447C20.034 4.77027 20.1864 5.41427 20.2775 5.98927L20.3311 6.35918C20.4519 7.23127 20.4835 8.3736 20.2775 9.64243C19.8711 12.1466 18.5381 15.1346 15.1906 17.4481C15.1724 17.6282 15.1715 17.8103 15.1753 17.9924L15.1849 18.2646C15.2002 18.6833 15.2155 19.1012 15.0986 19.5085C14.9165 20.141 14.2677 20.5578 13.6611 20.8568L13.364 20.9977L12.9807 21.1664C12.2639 21.4711 11.296 21.7836 10.6893 21.176C10.3252 20.8128 10.1757 20.2799 10.054 19.75L10.0089 19.5516C9.95817 19.3011 9.89419 19.0535 9.81724 18.8098C9.76933 18.6699 9.71758 18.5271 9.66199 18.3834C9.60081 18.4585 9.53588 18.5305 9.46745 18.599C9.13683 18.9296 8.64329 19.1606 8.23695 19.3226C7.79324 19.4979 7.29108 19.6513 6.82628 19.7778L6.58766 19.841L6.13053 19.9551L5.71654 20.0509L5.22108 20.1563L4.91154 20.2167C4.75716 20.2453 4.59814 20.2359 4.44821 20.1893C4.29827 20.1427 4.16191 20.0604 4.0509 19.9494C3.93988 19.8383 3.85753 19.702 3.81096 19.5521C3.76439 19.4021 3.75499 19.2431 3.78358 19.0887L3.86599 18.6757L4.01358 18.0068L4.13241 17.518L4.22249 17.173C4.34899 16.7092 4.50233 16.207 4.67866 15.7643C4.83966 15.357 5.07062 14.8634 5.40124 14.5328L5.47791 14.459L5.41658 14.4341C5.25279 14.3718 5.0869 14.3153 4.9192 14.2645L4.65374 14.183C3.98866 13.9818 3.27758 13.7652 2.83579 13.3224C2.29912 12.7867 2.48024 11.9712 2.73899 11.2927L2.84441 11.0301L3.01403 10.6468L3.15491 10.3497C3.45391 9.74402 3.87078 9.09522 4.50328 8.91314C4.8387 8.81731 5.18753 8.81156 5.53828 8.82114L5.74912 8.82785C6.0232 8.83743 6.29633 8.84797 6.5637 8.8221C8.87712 5.47368 11.8652 4.14064 14.3693 3.73431C15.3739 3.56955 16.3961 3.54118 17.4082 3.64997ZM8.00503 15.7968C7.85421 15.6852 7.67395 15.6203 7.48657 15.61C7.2992 15.5998 7.11295 15.6448 6.95087 15.7394L6.84545 15.8103L6.75633 15.8898L6.63654 16.0412C6.38737 16.4016 6.24553 16.8999 6.13533 17.3656L6.03183 17.8141L5.98295 18.0183L6.16599 17.9742L6.56658 17.8822C7.12049 17.7528 7.73479 17.5851 8.11237 17.2449C8.27654 17.0808 8.37558 16.8627 8.39109 16.6311C8.4066 16.3995 8.33753 16.1702 8.1967 15.9856L8.11812 15.8956L8.09512 15.8735L8.00503 15.7968ZM14.8887 9.11343C14.7108 8.93542 14.4995 8.7942 14.267 8.69783C14.0345 8.60147 13.7852 8.55184 13.5335 8.5518C13.2818 8.55176 13.0326 8.60129 12.8 8.69757C12.5674 8.79385 12.3561 8.935 12.1781 9.11295C12.0001 9.29091 11.8589 9.50218 11.7625 9.73471C11.6661 9.96724 11.6165 10.2165 11.6165 10.4682C11.6164 10.7199 11.666 10.9691 11.7622 11.2017C11.8585 11.4343 11.9997 11.6456 12.1776 11.8236C12.537 12.1831 13.0245 12.3851 13.5328 12.3852C14.0412 12.3853 14.5287 12.1835 14.8883 11.8241C15.2478 11.4647 15.4498 10.9772 15.4499 10.4689C15.45 9.96051 15.2481 9.47295 14.8887 9.11343Z" fill="black"/>
</svg>
